<svg data-v-423bf9ae="" xmlns="http://www.w3.org/2000/svg" viewBox="0 0 318 91" class="iconLeftSlogan"><!----><!----><!----><g data-v-423bf9ae="" id="9480b9f8-6ac2-4edc-a695-0d0d60eadf01" fill="black" transform="matrix(5.96421480178833,0,0,5.96421480178833,100.19637298583984,-22.186880111694336)"><path d="M5.70 8.55L5.70 10.26L7.66 10.26C7.41 11.49 6.62 12.15 5.50 12.15C4.13 12.15 3.04 11.10 3.04 8.68C3.04 6.54 4.12 5.35 5.53 5.35C6.71 5.35 7.39 5.95 7.62 7.07L7.64 7.21L9.83 7.21L9.81 7.07C9.62 5.17 8.25 3.72 5.56 3.72C2.88 3.72 0.73 5.56 0.73 8.81C0.73 11.96 2.48 13.78 5.11 13.78C6.16 13.78 6.86 13.57 7.41 13.06L7.84 12.05L8.01 13.58L9.74 13.58L9.74 8.55ZM15.40 5.92C14.97 5.92 14.42 6.12 14.04 6.51L13.48 7.55L13.48 6.12L11.28 6.12L11.28 13.58L13.48 13.58L13.48 10.46C13.48 8.34 14.22 7.64 15.96 7.76L15.96 5.98C15.79 5.95 15.64 5.92 15.40 5.92ZM20.29 5.92C17.81 5.92 16.35 7.52 16.35 9.84C16.35 12.17 17.81 13.78 20.29 13.78C22.75 13.78 24.22 12.17 24.22 9.84C24.22 7.52 22.75 5.92 20.29 5.92ZM20.29 12.26C19.24 12.26 18.61 11.40 18.61 9.84C18.61 8.29 19.24 7.43 20.29 7.43C21.32 7.43 21.95 8.29 21.95 9.84C21.95 11.40 21.32 12.26 20.29 12.26ZM36.50 6.12L34.13 6.12L33.00 11.76L31.86 6.16L29.25 6.16L28.17 11.75L27.01 6.12L24.57 6.12L26.94 13.58L29.41 13.58L30.55 8.16L31.67 13.58L34.13 13.58Z"></path></g><!----><g data-v-423bf9ae="" id="e523e267-f37c-4fb7-bbf8-2b44f0e30f60" transform="matrix(1.0034445524215698,0,0,1.0034445524215698,-8.306434631347656,-4.327354431152344)" stroke="none" fill="black"><path d="M66.268 58.43V92.08c0 1.507 1.35 3.11 2.852 3.11h13.698c1.505 0 2.452-1.602 2.452-3.11V36.538a49.013 49.013 0 0 1-4.451 8.214c-3.766 5.566-8.662 10.164-14.551 13.678zM10.782 92.081c0 1.507 1.264 3.11 2.768 3.11h13.699c1.501 0 2.535-1.602 2.535-3.11V66.923c-8.38-.093-15.35-1.198-19.002-1.909v27.067zM38.905 66.594V92.08c0 1.507.925 3.11 2.432 3.11h13.694c1.508 0 2.876-1.604 2.876-3.11V62.447a64.124 64.124 0 0 1-9.778 2.822 78.997 78.997 0 0 1-9.224 1.325zM54.666 40.262c.143-.184.283-.369.42-.553-.018 0-.037-.004-.055-.004H41.338c-1.508 0-2.433 1.572-2.433 3.076v8.968c.552-.22 1.097-.447 1.63-.684 5.818-2.594 10.572-6.228 14.13-10.803z"></path><path d="M85.134 21.104h8.217L74.818 4.881 56.285 21.104h9.963c-.134 2.97-1.132 12.907-8.341 22.034-4.053 5.131-10.07 10.006-19.002 13.243-5.765 2.09-12.745 3.495-21.196 3.846-1.367.057-2.771.087-4.217.087l-.555-.003a114.157 114.157 0 0 1-3.846-.084s1.029.257 2.848.603c3.53.67 10.04 1.672 17.79 1.766a88.902 88.902 0 0 0 9.176-.344c6.248-.564 12.817-1.884 19.002-4.457 2.896-1.205 5.706-2.685 8.36-4.491 9.106-6.196 16.37-16.234 18.867-32.2z"></path></g><!----><g data-v-423bf9ae="" id="443be8c4-11de-4837-89d5-65f35e6e98aa" fill="black" transform="matrix(0.7029613256454468,0,0,0.7029613256454468,104.25499725341797,57.44121551513672)"><path d="M6.03 6.54L4.17 13.02L3.30 13.02L0.42 3.78L1.18 3.78L3.74 12.45L6.16 3.78L6.97 3.78L9.39 12.46L11.98 3.78L12.70 3.78L9.81 13.02L8.95 13.02L7.08 6.54L6.57 4.54L6.55 4.54L6.03 6.54ZM22.27 12.38L28.11 12.38L28.11 13.02L21.57 13.02L21.57 3.78L27.89 3.78L27.89 4.42L22.27 4.42L22.27 7.99L26.71 7.99L26.71 8.65L22.27 8.65L22.27 12.38ZM37.14 13.02L37.14 3.78L40.40 3.78L40.40 3.78Q41.92 3.78 42.66 4.41L42.66 4.41L42.66 4.41Q43.41 5.04 43.41 6.23L43.41 6.23L43.41 6.23Q43.41 7.04 42.97 7.60L42.97 7.60L42.97 7.60Q42.53 8.16 41.72 8.33L41.72 8.33L41.72 8.34L41.72 8.34Q42.62 8.48 43.14 9.07L43.14 9.07L43.14 9.07Q43.67 9.66 43.67 10.53L43.67 10.53L43.67 10.53Q43.67 11.72 42.82 12.37L42.82 12.37L42.82 12.37Q41.97 13.02 40.40 13.02L40.40 13.02L37.14 13.02ZM37.84 8.04L40.42 8.04L40.42 8.04Q42.67 8.04 42.67 6.23L42.67 6.23L42.67 6.23Q42.67 4.42 40.42 4.42L40.42 4.42L37.84 4.42L37.84 8.04ZM37.84 12.38L40.54 12.38L40.54 12.38Q41.72 12.38 42.32 11.90L42.32 11.90L42.32 11.90Q42.92 11.42 42.92 10.53L42.92 10.53L42.92 10.53Q42.92 9.62 42.32 9.15L42.32 9.15L42.32 9.15Q41.72 8.68 40.54 8.68L40.54 8.68L37.84 8.68L37.84 12.38ZM70.29 3.78L70.29 4.42L66.92 4.42L66.92 13.02L66.22 13.02L66.22 4.42L62.85 4.42L62.85 3.78L70.29 3.78ZM79.76 12.38L85.60 12.38L85.60 13.02L79.06 13.02L79.06 3.78L85.37 3.78L85.37 4.42L79.76 4.42L79.76 7.99L84.20 7.99L84.20 8.65L79.76 8.65L79.76 12.38ZM101.68 10.68L101.68 10.68Q101.29 11.86 100.32 12.51L100.32 12.51L100.32 12.51Q99.34 13.16 97.99 13.16L97.99 13.16L97.99 13.16Q96.73 13.16 95.77 12.58L95.77 12.58L95.77 12.58Q94.82 12.00 94.30 10.92L94.30 10.92L94.30 10.92Q93.79 9.84 93.79 8.40L93.79 8.40L93.79 8.40Q93.79 6.96 94.30 5.88L94.30 5.88L94.30 5.88Q94.82 4.80 95.77 4.22L95.77 4.22L95.77 4.22Q96.73 3.64 97.97 3.64L97.97 3.64L97.97 3.64Q100.74 3.64 101.56 5.92L101.56 5.92L100.87 6.24L100.87 6.24Q100.55 5.26 99.84 4.77L99.84 4.77L99.84 4.77Q99.13 4.28 98.01 4.28L98.01 4.28L98.01 4.28Q96.98 4.28 96.19 4.78L96.19 4.78L96.19 4.78Q95.40 5.28 94.96 6.21L94.96 6.21L94.96 6.21Q94.53 7.14 94.53 8.40L94.53 8.40L94.53 8.40Q94.53 9.66 94.96 10.59L94.96 10.59L94.96 10.59Q95.38 11.52 96.16 12.02L96.16 12.02L96.16 12.02Q96.94 12.52 97.99 12.52L97.99 12.52L97.99 12.52Q99.11 12.52 99.89 11.97L99.89 11.97L99.89 11.97Q100.67 11.42 100.98 10.42L100.98 10.42L101.68 10.68ZM117.15 3.78L117.85 3.78L117.85 13.02L117.15 13.02L117.15 8.65L111.44 8.65L111.44 13.02L110.74 13.02L110.74 3.78L111.44 3.78L111.44 7.99L117.15 7.99L117.15 3.78ZM134.86 3.78L134.86 13.02L133.99 13.02L129.09 5.77L128.41 4.54L128.39 4.54L128.44 5.70L128.44 13.02L127.76 13.02L127.76 3.78L128.65 3.78L133.53 11.02L134.23 12.26L134.20 11.10L134.20 3.78L134.86 3.78ZM148.44 3.64L148.44 3.64Q149.74 3.64 150.70 4.22L150.70 4.22L150.70 4.22Q151.66 4.80 152.18 5.87L152.18 5.87L152.18 5.87Q152.70 6.94 152.70 8.40L152.70 8.40L152.70 8.40Q152.70 9.86 152.18 10.93L152.18 10.93L152.18 10.93Q151.66 12.00 150.70 12.58L150.70 12.58L150.70 12.58Q149.74 13.16 148.44 13.16L148.44 13.16L148.44 13.16Q147.14 13.16 146.18 12.58L146.18 12.58L146.18 12.58Q145.22 12.00 144.70 10.93L144.70 10.93L144.70 10.93Q144.19 9.86 144.19 8.40L144.19 8.40L144.19 8.40Q144.19 6.94 144.70 5.87L144.70 5.87L144.70 5.87Q145.22 4.80 146.18 4.22L146.18 4.22L146.18 4.22Q147.14 3.64 148.44 3.64L148.44 3.64ZM148.44 4.28L148.44 4.28Q147.36 4.28 146.57 4.78L146.57 4.78L146.57 4.78Q145.78 5.28 145.36 6.21L145.36 6.21L145.36 6.21Q144.93 7.14 144.93 8.40L144.93 8.40L144.93 8.40Q144.93 9.66 145.36 10.59L145.36 10.59L145.36 10.59Q145.78 11.52 146.57 12.02L146.57 12.02L146.57 12.02Q147.36 12.52 148.44 12.52L148.44 12.52L148.44 12.52Q149.52 12.52 150.32 12.02L150.32 12.02L150.32 12.02Q151.12 11.52 151.54 10.59L151.54 10.59L151.54 10.59Q151.97 9.66 151.97 8.40L151.97 8.40L151.97 8.40Q151.97 7.14 151.54 6.21L151.54 6.21L151.54 6.21Q151.12 5.28 150.32 4.78L150.32 4.78L150.32 4.78Q149.52 4.28 148.44 4.28L148.44 4.28ZM162.72 12.38L168.27 12.38L168.27 13.02L162.02 13.02L162.02 3.78L162.72 3.78L162.72 12.38ZM180.15 3.64L180.15 3.64Q181.45 3.64 182.41 4.22L182.41 4.22L182.41 4.22Q183.37 4.80 183.89 5.87L183.89 5.87L183.89 5.87Q184.41 6.94 184.41 8.40L184.41 8.40L184.41 8.40Q184.41 9.86 183.89 10.93L183.89 10.93L183.89 10.93Q183.37 12.00 182.41 12.58L182.41 12.58L182.41 12.58Q181.45 13.16 180.15 13.16L180.15 13.16L180.15 13.16Q178.85 13.16 177.89 12.58L177.89 12.58L177.89 12.58Q176.93 12.00 176.41 10.93L176.41 10.93L176.41 10.93Q175.90 9.86 175.90 8.40L175.90 8.40L175.90 8.40Q175.90 6.94 176.41 5.87L176.41 5.87L176.41 5.87Q176.93 4.80 177.89 4.22L177.89 4.22L177.89 4.22Q178.85 3.64 180.15 3.64L180.15 3.64ZM180.15 4.28L180.15 4.28Q179.07 4.28 178.28 4.78L178.28 4.78L178.28 4.78Q177.49 5.28 177.07 6.21L177.07 6.21L177.07 6.21Q176.64 7.14 176.64 8.40L176.64 8.40L176.64 8.40Q176.64 9.66 177.07 10.59L177.07 10.59L177.07 10.59Q177.49 11.52 178.28 12.02L178.28 12.02L178.28 12.02Q179.07 12.52 180.15 12.52L180.15 12.52L180.15 12.52Q181.23 12.52 182.03 12.02L182.03 12.02L182.03 12.02Q182.83 11.52 183.25 10.59L183.25 10.59L183.25 10.59Q183.68 9.66 183.68 8.40L183.68 8.40L183.68 8.40Q183.68 7.14 183.25 6.21L183.25 6.21L183.25 6.21Q182.83 5.28 182.03 4.78L182.03 4.78L182.03 4.78Q181.23 4.28 180.15 4.28L180.15 4.28ZM197.29 8.50L201.08 8.50L201.08 13.02L200.52 13.02L200.49 11.41L200.49 11.41Q200.12 12.25 199.31 12.71L199.31 12.71L199.31 12.71Q198.51 13.16 197.32 13.16L197.32 13.16L197.32 13.16Q196.06 13.16 195.11 12.58L195.11 12.58L195.11 12.58Q194.17 12.00 193.66 10.92L193.66 10.92L193.66 10.92Q193.14 9.84 193.14 8.40L193.14 8.40L193.14 8.40Q193.14 6.96 193.67 5.88L193.67 5.88L193.67 5.88Q194.19 4.80 195.15 4.22L195.15 4.22L195.15 4.22Q196.10 3.64 197.36 3.64L197.36 3.64L197.36 3.64Q198.77 3.64 199.67 4.20L199.67 4.20L199.67 4.20Q200.56 4.76 201.01 5.91L201.01 5.91L200.37 6.24L200.37 6.24Q200.05 5.28 199.28 4.78L199.28 4.78L199.28 4.78Q198.52 4.28 197.36 4.28L197.36 4.28L197.36 4.28Q196.32 4.28 195.54 4.78L195.54 4.78L195.54 4.78Q194.75 5.28 194.32 6.21L194.32 6.21L194.32 6.21Q193.89 7.14 193.89 8.40L193.89 8.40L193.89 8.40Q193.89 10.32 194.80 11.42L194.80 11.42L194.80 11.42Q195.72 12.52 197.34 12.52L197.34 12.52L197.34 12.52Q198.35 12.52 199.05 12.12L199.05 12.12L199.05 12.12Q199.75 11.72 200.09 11.07L200.09 11.07L200.09 11.07Q200.42 10.42 200.42 9.67L200.42 9.67L200.42 9.16L197.29 9.16L197.29 8.50ZM211.26 3.78L211.26 13.02L210.56 13.02L210.56 3.78L211.26 3.78ZM221.87 12.38L227.71 12.38L227.71 13.02L221.17 13.02L221.17 3.78L227.49 3.78L227.49 4.42L221.87 4.42L221.87 7.99L226.31 7.99L226.31 8.65L221.87 8.65L221.87 12.38ZM239.60 3.64L239.60 3.64Q242.20 3.64 243.08 5.68L243.08 5.68L242.48 6.17L242.48 6.17Q242.13 5.18 241.44 4.73L241.44 4.73L241.44 4.73Q240.74 4.28 239.61 4.28L239.61 4.28L239.61 4.28Q238.80 4.28 238.20 4.54L238.20 4.54L238.20 4.54Q237.59 4.79 237.28 5.22L237.28 5.22L237.28 5.22Q236.96 5.66 236.96 6.20L236.96 6.20L236.96 6.20Q236.96 6.73 237.23 7.08L237.23 7.08L237.23 7.08Q237.50 7.43 238.13 7.68L238.13 7.68L238.13 7.68Q238.77 7.92 239.89 8.12L239.89 8.12L239.89 8.12Q241.70 8.43 242.45 9.02L242.45 9.02L242.45 9.02Q243.21 9.60 243.21 10.64L243.21 10.64L243.21 10.64Q243.21 11.38 242.77 11.96L242.77 11.96L242.77 11.96Q242.34 12.53 241.55 12.84L241.55 12.84L241.55 12.84Q240.76 13.16 239.74 13.16L239.74 13.16L239.74 13.16Q238.28 13.16 237.28 12.58L237.28 12.58L237.28 12.58Q236.28 12.00 235.91 10.95L235.91 10.95L236.53 10.47L236.53 10.47Q236.81 11.47 237.66 11.99L237.66 11.99L237.66 11.99Q238.50 12.52 239.75 12.52L239.75 12.52L239.75 12.52Q240.95 12.52 241.72 12.03L241.72 12.03L241.72 12.03Q242.48 11.54 242.48 10.68L242.48 10.68L242.48 10.68Q242.48 9.94 241.86 9.51L241.86 9.51L241.86 9.51Q241.23 9.07 239.69 8.81L239.69 8.81L239.69 8.81Q238.39 8.58 237.64 8.26L237.64 8.26L237.64 8.26Q236.88 7.94 236.55 7.46L236.55 7.46L236.55 7.46Q236.22 6.99 236.22 6.27L236.22 6.27L236.22 6.27Q236.22 5.56 236.64 4.96L236.64 4.96L236.64 4.96Q237.05 4.35 237.81 4.00L237.81 4.00L237.81 4.00Q238.57 3.64 239.60 3.64L239.60 3.64Z"></path></g></svg>