<svg data-v-423bf9ae="" xmlns="http://www.w3.org/2000/svg" viewBox="0 0 316 90" class="iconLeft"><!----><!----><!----><g data-v-423bf9ae="" id="14e3dbaf-5289-4ab8-95af-fc6bb6888552" fill="black" transform="matrix(6.65372896194458,0,0,6.65372896194458,111.12275695800781,8.080121994018555)"><path d="M6.99 5.08L4.96 5.08C4.38 5.08 3.67 6.51 4.26 6.51L6.10 6.51L6.10 8.54C5.74 8.61 5.33 8.65 4.97 8.65C3.39 8.65 2.10 7.74 2.10 5.56C2.10 3.36 3.33 2.44 4.94 2.44C5.74 2.44 6.75 2.70 7.18 3.00C7.67 3.30 7.66 2.03 7.29 1.68C6.89 1.32 5.85 1.04 4.69 1.04C2.21 1.04 0.46 2.48 0.46 5.56C0.46 8.64 2.25 10.05 4.76 10.05C6.01 10.05 7.06 9.77 7.46 9.42C7.63 9.27 7.73 8.81 7.73 8.50L7.73 5.39C7.73 5.19 7.35 5.08 6.99 5.08ZM13.01 3.43C11.91 3.46 11.10 3.88 10.57 4.54L10.36 3.68C10.26 3.29 8.93 3.28 8.93 3.81L8.93 9.63C8.93 10.19 10.58 10.19 10.58 9.63L10.58 5.94C11.23 5.25 11.89 5.04 12.70 5.00C13.19 4.98 13.52 3.42 13.01 3.43ZM17.05 10.05C19.14 10.05 20.36 8.82 20.36 6.72C20.36 4.61 19.14 3.36 17.05 3.36C14.97 3.36 13.75 4.61 13.75 6.72C13.75 8.82 14.97 10.05 17.05 10.05ZM17.05 8.82C16.00 8.82 15.39 8.06 15.39 6.72C15.39 5.35 16.00 4.59 17.05 4.59C18.10 4.59 18.72 5.35 18.72 6.72C18.72 8.06 18.10 8.82 17.05 8.82ZM29.01 3.78C28.69 5.25 28.31 6.58 27.71 8.01C27.13 6.57 26.75 5.25 26.42 3.78C26.32 3.26 24.53 3.26 24.67 3.78L24.95 4.72C24.67 5.82 24.32 6.90 23.84 8.01C23.27 6.55 22.88 5.25 22.55 3.78C22.46 3.26 20.66 3.26 20.80 3.78C21.43 6.06 22.78 9.27 23.32 9.87C23.56 10.12 24.15 10.12 24.39 9.87C24.79 9.39 25.27 8.19 25.70 6.82C26.26 8.26 26.87 9.52 27.17 9.87C27.43 10.12 28.00 10.11 28.27 9.87C28.81 9.28 30.13 6.06 30.77 3.78C30.91 3.26 29.12 3.26 29.01 3.78Z"></path></g><!----><g data-v-423bf9ae="" id="69f28c7a-2411-4121-aeaa-f5269664efab" transform="matrix(1.1165952682495117,0,0,1.1165952682495117,-7.965384006500244,-11.236957550048828)" stroke="none" fill="black"><g clip-rule="evenodd"><path d="M25.493 44.45c.32-.036.724.976.96.24.657-.817 3.016-.515 4.32-1.44-.27.45-.93.51-1.2.96 1.556-.783 2.99-.772 4.169-1.435-.113-.168-.07-.348.391-.246a3.594 3.594 0 0 1-.391.246c.081.12.238.233.391.234.299-1.171 1.783-.384 2.4-1.92.058.422.413.547.96.48 3.355-1.814 7.9-3.793 9.6-6.24-.013.307-.308.332-.24.72 7.508-4.492 12.85-11.15 18-18-.297.66.426 2.044.96 2.64.854-.146 1.741-.125 2.88-.48.511-2.863-.953-4.726-1.44-6.96.16-1.36-.172-2.228-.96-2.64h-1.2c-2.803 1.456-5.24 1.074-7.68 2.4-.327 3.268 1.931 3.514 3.84 2.88-9.948 14.736-24.697 25.802-48 26.4-.235.324-.64.479-.96.72-.105.825.095 1.345.24 1.92 4.538.906 8.984.453 12.96-.479zM18.293 69.41c-1.444-.229-1.595-.364-3.12 0-.747-.375-.156-.201-.96-.72-1.233-.029-2.119.569-3.12.479-.997-.089-3.717 1.999-3.12 4.08-.106-.349-.211.024-.48 0v4.801c.752 4.55-.335 7.885 1.2 11.279 3.055 2.211 16.265 2.955 17.76-1.68.777-2.41.522-12.758 0-14.88-.814-3.305-4.305-2.748-8.16-3.359zm.24 17.521c-.46-.002-.11-.432.248-.496-1.56-.092-4.125-.697-6.008.496-.959-5.177-.551-9.605-.48-13.44 3.593-.234 6.989-.562 10.32-.72 1.598 3.922.579 9.585.96 13.68-2.012 1.488-3.404-.482-5.04.48zM91.493 64.61c.347-9.052 0-18.125 0-28.08 0-4.149.635-8.705 0-11.28-.763-3.093-3.917-3.035-6.72-3.12-4.646-.141-8.601-.733-11.28 1.2.413.094.615-.356.72 0-1.401 1.468-1.459 3.229-1.2 4.8-.316-.003-.219-.421-.479-.48.213 1.539-.566 2.845.479 4.32-.316-.002-.219-.42-.479-.48-.007.906-.143 2.433.72 3.36-.938-.379-.497.623-.96.72.359 2.33.107 5.263.24 8.16-.771.205.957 3.146.479 3.84-.026-.293-.071-.568-.479-.48-.062 9.203.434 19.639.479 29.76.025 5.44-1.756 13.711 4.32 14.16 4.312.317 12.357.701 14.4-2.641.433-7.915-.59-14.609-.24-23.759zm-3.36 22.56c-5.051.253-5.775-.564-10.56-.239.198-.569-.338-1.105-.24-.24-.812-.388.471-2.87-.72-2.88.907-.688 1.523-2.12.479-3.84.261.059.163.477.48.479-.026-.842.001-2.138-.72-3.12.34.021.68.04.72-.239-.491-3.254.794-7.439-.96-10.32.209-.698.359-.271.96-.24-.594-5.223.324-13.304-.72-19.44.677-2.157.377-5.297 0-6.96.908-4.042-.42-9.015.479-14.16 3.026-.182 7.549.225 10.32-.24.477 2.543.995 5.404.96 8.4-.185 15.916.153 35.551-.478 53.039zM69.173 49.01c.046-5.108-1.552-6.743-6.479-6.96-2.316-.102-4.151-.314-7.2 0-.002-.353-.668-1.206-.96-.48.187.054.474.007.479.24-1.847.033-3.16 1.194-3.6 1.92-.322-.87 1.409-1.633.24-1.2-.47 1.309-.923 1.464-1.68 2.16-.232.351.772 1.638.24 2.16-.027-.293-.072-.568-.48-.48.663.904-.057 1.775.96 2.4-.377.023-.833-.032-.72.48.188 2.611-.524 5.494.72 9.12-.307-.013-.333-.308-.72-.24.043 7.756.565 17.785.48 25.44-.026 2.365-.293 4.151.72 5.521 1.769 2.39 4.177 1.648 7.44 1.68 4.93.046 9.496.944 10.56-3.12.204-.779-.27-1.651-.239-2.88.222-9.11.135-24.07.239-35.761zm-3.6 38.16c-4.158.331-6.707-1.209-10.32 0-.723-.289.037-1.049.721-.72-.654-.721-1.416.15-1.44-1.2.233.007.187.294.24.48.522-.337.293-1.755-.48-2.16.055-.346.717-.084.72-.479-.147-2.693.578-4.55-.72-7.44-.51-.35.343-.598.48 0 .271-10.542-.455-21.368 0-29.52 2.901-.679 7.807.296 10.319-.72.473.83.857 1.736.96 2.64.492 4.307-.003 9.43 0 14.4.006 7.832.345 16.322-.48 24.719zM46.613 61.25c-.903-6.117-7.843-3.034-11.76-4.8.001-.133-.194-.272-.24 0 .666.998-2.171-.457-2.4.72.058-1.054-.548-.219-1.44-.96-.536.28-1.037 2.1-.96.96-1.463.488-.523 2.14-2.16 2.16.126 2.536-.991 4.794.72 7.2-.655.021-.483-.399-.96 0 .276 4.158.452 10.041.24 12.96-.075 1.037.516 2.485.48 3.84-.01.36-.477.875-.48 1.2-.028 2.567.735 3.926 1.92 5.521 4.319 1.82 9.913.582 14.16.479 1.146-.693 1.96-1.719 2.88-2.64-.85-7.172 1.151-18.847 0-26.64zm-11.04 25.681c.531-.784-.421.06-.48-.96-1.109 1.428-1.22-.462-2.16.72-.994-1.38.297-3.634-1.2-4.32.176-.427.436-.034.72 0 .205-6.5-1.103-14.893.24-21.6 4.078.745 7.16-.88 10.56 0 .16 7.521.223 15.928.24 25.92-3.16 1.319-4.957-.934-7.92.24z"></path></g></g><!----></svg>